# xmcd CD database file
#
# Track frame offsets:
#	150
#	12727
#	28682
#	35137
#	45467
#	58152
#	67907
#	81195
#	87627
#	100287
#	109815
#	117362
#
# Disc length: 1771 seconds
#
# Revision: 0
# Processed by: cddbd v1.5.1PL0 Copyright (c) Steve Scherf et al.
# Submitted via: CDex 1.51
#
DISCID=a606e90c
DTITLE=Pedro Infante - Colección de Oro Vol. 3
DYEAR=2001
DGENRE=Ranchero
TTITLE0=Ella
TTITLE1=Mi Tenampa
TTITLE2=Aqui Vienen Los Mariachis
TTITLE3=Yo Soy Quien Soy
TTITLE4=Ahora Soy Rico
TTITLE5=Copa Tras Copa
TTITLE6=La Tertulia
TTITLE7=La Gallina Ponedora
TTITLE8=La Que Se Fue
TTITLE9=El Volador
TTITLE10=El Cocinero
TTITLE11=Efigenio El Sombrerudo
EXTD=YEAR: 2001
EXTT0=
EXTT1=
EXTT2=
EXTT3=
EXTT4=
EXTT5=
EXTT6=
EXTT7=
EXTT8=
EXTT9=
EXTT10=
EXTT11=
PLAYORDER=
